<?xml version="1.0" encoding="UTF-8" standalone="no"?>
<!-- Created with Inkscape (http://www.inkscape.org/) -->

<svg
   xmlns:dc="http://purl.org/dc/elements/1.1/"
   xmlns:cc="http://creativecommons.org/ns#"
   xmlns:rdf="http://www.w3.org/1999/02/22-rdf-syntax-ns#"
   xmlns:svg="http://www.w3.org/2000/svg"
   xmlns="http://www.w3.org/2000/svg"
   xmlns:sodipodi="http://sodipodi.sourceforge.net/DTD/sodipodi-0.dtd"
   xmlns:inkscape="http://www.inkscape.org/namespaces/inkscape"
   id="svg2972"
   version="1.1"
   inkscape:version="0.47 r22583"
   width="684.87726"
   height="425.28094"
   xml:space="preserve"
   sodipodi:docname="normals_persp.pdf"><metadata
     id="metadata2978"><rdf:RDF><cc:Work
         rdf:about=""><dc:format>image/svg+xml</dc:format><dc:type
           rdf:resource="http://purl.org/dc/dcmitype/StillImage" /><dc:title></dc:title></cc:Work></rdf:RDF></metadata><defs
     id="defs2976"><inkscape:perspective
       sodipodi:type="inkscape:persp3d"
       inkscape:vp_x="0 : 0.5 : 1"
       inkscape:vp_y="0 : 1000 : 0"
       inkscape:vp_z="1 : 0.5 : 1"
       inkscape:persp3d-origin="0.5 : 0.33333333 : 1"
       id="perspective2980" /></defs><sodipodi:namedview
     pagecolor="#ffffff"
     bordercolor="#666666"
     borderopacity="1"
     objecttolerance="10"
     gridtolerance="10"
     guidetolerance="10"
     inkscape:pageopacity="0"
     inkscape:pageshadow="2"
     inkscape:window-width="645"
     inkscape:window-height="527"
     id="namedview2974"
     showgrid="false"
     inkscape:zoom="0.22412156"
     inkscape:cx="347.81394"
     inkscape:cy="-21.639069"
     inkscape:window-x="0"
     inkscape:window-y="28"
     inkscape:window-maximized="0"
     inkscape:current-layer="g2982" /><g
     id="g2982"
     inkscape:groupmode="layer"
     inkscape:label="normals_persp"
     transform="matrix(1.25,0,0,-1.25,-24.68606,973.42)"><g
       id="g2984"><g
         id="g2986"
         transform="matrix(1,0,0,-1,0,842.40002)"><path
           d="m 136,153.891 152,-24 -24,24 -178.164,80 50.164,-80 z"
           style="fill:none;stroke:#000000;stroke-width:0.75815398;stroke-linecap:butt;stroke-linejoin:miter;stroke-miterlimit:4;stroke-opacity:1;stroke-dasharray:none"
           id="path2988" /></g><g
         id="g2990"
         transform="matrix(1,0,0,-1,0,842.40002)"><path
           d="M 85.98,233.441 288,129.891 85.98,233.441 z"
           style="fill:none;stroke:#000000;stroke-width:1.54495001;stroke-linecap:butt;stroke-linejoin:miter;stroke-miterlimit:4;stroke-opacity:1;stroke-dasharray:1.54495, 4.63485;stroke-dashoffset:0"
           id="path2992" /></g><g
         id="g2994"
         transform="matrix(1,0,0,-1,0,842.40002)"><path
           d="m 240,161.891 -32,-56"
           style="fill:none;stroke:#000000;stroke-width:1.26359105;stroke-linecap:butt;stroke-linejoin:miter;stroke-miterlimit:1;stroke-opacity:1;stroke-dasharray:none"
           id="path2996" /></g><g
         id="g2998"
         transform="matrix(-0.571429,1,1,0.571429,0,842.40002)"><path
           d="m -225.423,116.144 -0.002,-9.915"
           style="fill:none;stroke:#000000;stroke-width:1.09710395;stroke-linecap:butt;stroke-linejoin:miter;stroke-miterlimit:4;stroke-opacity:1;stroke-dasharray:none"
           id="path3000" /></g><path
         d="m 209.836,722.002 -2.688,15.953 12.383,-10.414 c -4.066,0.472 -7.976,-1.778 -9.695,-5.539 z"
         style="fill:#000000;fill-opacity:1;fill-rule:evenodd;stroke:none"
         id="path3002" /><g
         id="g3004"
         transform="matrix(1,0,0,-1,0,842.40002)"><path
           d="m 456,161.891 -168,-32 -24,24 224,80 -32,-72 z"
           style="fill:none;stroke:#000000;stroke-width:0.75815398;stroke-linecap:butt;stroke-linejoin:miter;stroke-miterlimit:4;stroke-opacity:1;stroke-dasharray:none"
           id="path3006" /></g><g
         id="g3008"
         transform="matrix(1,0,0,-1,0,842.40002)"><path
           d="m 488,233.891 -200,-104 200,104 z"
           style="fill:none;stroke:#000000;stroke-width:1.54495001;stroke-linecap:butt;stroke-linejoin:miter;stroke-miterlimit:4;stroke-opacity:1;stroke-dasharray:1.54495, 4.63485;stroke-dashoffset:0"
           id="path3010" /></g><g
         id="g3012"
         transform="matrix(1,0,0,-1,0,842.40002)"><path
           d="m 312,153.891 24,-56"
           style="fill:none;stroke:#000000;stroke-width:1.26359105;stroke-linecap:butt;stroke-linejoin:miter;stroke-miterlimit:4;stroke-opacity:1;stroke-dasharray:none"
           id="path3014" /></g><g
         id="g3016"
         transform="matrix(0.428571,1,1,-0.428571,0,842.40002)"><path
           d="m -17.046,324.555 0,-10.5"
           style="fill:none;stroke:#000000;stroke-width:1.16142297;stroke-linecap:butt;stroke-linejoin:miter;stroke-miterlimit:4;stroke-opacity:1;stroke-dasharray:none"
           id="path3018" /></g><path
         d="m 325.527,734.302 11.114,11.758 -0.848,-16.156 c -2.078,3.527 -6.227,5.293 -10.266,4.398 z"
         style="fill:#000000;fill-opacity:1;fill-rule:evenodd;stroke:none"
         id="path3020" /><g
         id="g3022"
         transform="matrix(1,0,0,-1,0,842.40002)"><path
           d="m 24,369.891 232,8 8,-224 L 85.836,233.52 24,369.891 z"
           style="fill:none;stroke:#000000;stroke-width:0.75815398;stroke-linecap:butt;stroke-linejoin:miter;stroke-miterlimit:4;stroke-opacity:1;stroke-dasharray:none"
           id="path3024" /></g><g
         id="g3026"
         transform="matrix(1,0,0,-1,0,842.40002)"><path
           d="M 85.98,233.965 256,377.891 85.98,233.965 z"
           style="fill:none;stroke:#000000;stroke-width:1.54495001;stroke-linecap:butt;stroke-linejoin:miter;stroke-miterlimit:4;stroke-opacity:1;stroke-dasharray:1.54495, 4.63485;stroke-dashoffset:0"
           id="path3028" /></g><g
         id="g3030"
         transform="matrix(1,0,0,-1,0,842.40002)"><path
           d="m 216,217.891 -56,-16"
           style="fill:none;stroke:#000000;stroke-width:1.26359105;stroke-linecap:butt;stroke-linejoin:miter;stroke-miterlimit:4;stroke-opacity:1;stroke-dasharray:none"
           id="path3032" /></g><g
         id="g3034"
         transform="matrix(-1,0.285714,0.285714,1,0,842.40002)"><path
           d="m -257.255,-138.897 0.002,-10.985"
           style="fill:none;stroke:#000000;stroke-width:1.21497297;stroke-linecap:butt;stroke-linejoin:miter;stroke-miterlimit:4;stroke-opacity:1;stroke-dasharray:none"
           id="path3036" /></g><path
         d="m 171.449,631.408 -13.07,9.543 16.137,1.195 c -3.239,-2.504 -4.465,-6.844 -3.067,-10.738 z"
         style="fill:#000000;fill-opacity:1;fill-rule:evenodd;stroke:none"
         id="path3038" /><g
         id="g3040"
         transform="matrix(1,0,0,-1,0,842.40002)"><path
           d="m 544,393.891 -288,-16 8,-224 224,80 56,160 z"
           style="fill:none;stroke:#000000;stroke-width:0.75815398;stroke-linecap:butt;stroke-linejoin:miter;stroke-miterlimit:4;stroke-opacity:1;stroke-dasharray:none"
           id="path3042" /></g><g
         id="g3044"
         transform="matrix(1,0,0,-1,0,842.40002)"><path
           d="M 490.031,233.965 256,377.891 490.031,233.965 z"
           style="fill:none;stroke:#000000;stroke-width:1.54495001;stroke-linecap:butt;stroke-linejoin:miter;stroke-miterlimit:4;stroke-opacity:1;stroke-dasharray:1.54495, 4.63485;stroke-dashoffset:0"
           id="path3046" /></g><g
         id="g3048"
         transform="matrix(1,0,0,-1,0,842.40002)"><path
           d="m 328,217.891 40,-24"
           style="fill:none;stroke:#000000;stroke-width:1.26359105;stroke-linecap:butt;stroke-linejoin:miter;stroke-miterlimit:4;stroke-opacity:1;stroke-dasharray:none"
           id="path3050" /></g><g
         id="g3052"
         transform="matrix(1,0.6,0.6,-1,0,842.40002)"><path
           d="m 145.047,309.817 0.002,-9.795"
           style="fill:none;stroke:#000000;stroke-width:1.08352005;stroke-linecap:butt;stroke-linejoin:miter;stroke-miterlimit:4;stroke-opacity:1;stroke-dasharray:none"
           id="path3054" /></g><path
         d="m 353.531,646.369 15.895,3.023 -10.149,-12.601 c 0.387,4.074 -1.949,7.937 -5.746,9.578 z"
         style="fill:#000000;fill-opacity:1;fill-rule:evenodd;stroke:none"
         id="path3056" /><g
         id="g3058"
         transform="matrix(1,0,0,-1,0,842.40002)"><path
           d="m 264,153.891 -8,-88"
           style="fill:none;stroke:#ab2c16;stroke-width:1.68478703;stroke-linecap:butt;stroke-linejoin:miter;stroke-miterlimit:4;stroke-opacity:1;stroke-dasharray:none"
           id="path3060" /></g><g
         id="g3062"
         transform="matrix(-0.0909091,1,1,0.0909091,0,842.40002)"><path
           d="m -176.43,255.543 -0.001,-15.164"
           style="fill:none;stroke:#000000;stroke-width:1.67786801;stroke-linecap:butt;stroke-linejoin:miter;stroke-miterlimit:4;stroke-opacity:1;stroke-dasharray:none"
           id="path3064" /></g><path
         d="m 250.188,757.896 5.582,20.84 9.246,-19.492 c -4.672,2.824 -10.661,2.261 -14.828,-1.348 z"
         style="fill:#000000;fill-opacity:1;fill-rule:evenodd;stroke:none"
         id="path3066" /><text
         transform="matrix(1,0,0,-1,256,728.51028)"
         id="text3068"><tspan
           style="font-size:23.58702469px;font-variant:normal;font-weight:normal;writing-mode:lr-tb;fill:#ab2c16;fill-opacity:1;fill-rule:nonzero;stroke:none;font-family:DejaVu Sans;-inkscape-font-specification:DejaVuSansBold"
           x="0"
           y="0"
           id="tspan3070">n</tspan></text>
<text
         transform="matrix(1,0,0,-1,344,728.51028)"
         id="text3072"><tspan
           style="font-size:16.84787369px;font-variant:normal;font-weight:normal;writing-mode:lr-tb;fill:#000000;fill-opacity:1;fill-rule:nonzero;stroke:none;font-family:DejaVu Sans;-inkscape-font-specification:DejaVuSansBold"
           x="0 11.978838"
           y="0"
           sodipodi:role="line"
           id="tspan3074">n1</tspan><tspan
           style="font-size:16.84787369px;font-variant:normal;font-weight:normal;writing-mode:lr-tb;fill:#000000;fill-opacity:1;fill-rule:nonzero;stroke:none;font-family:DejaVu Sans;-inkscape-font-specification:DejaVuSansBold"
           x="-167.99998 -156.02115"
           y="-7.9999938"
           sodipodi:role="line"
           id="tspan3076">n2</tspan><tspan
           style="font-size:16.84787369px;font-variant:normal;font-weight:normal;writing-mode:lr-tb;fill:#000000;fill-opacity:1;fill-rule:nonzero;stroke:none;font-family:DejaVu Sans;-inkscape-font-specification:DejaVuSansBold"
           x="-167.99998 -156.02115"
           y="128"
           sodipodi:role="line"
           id="tspan3078">n3</tspan><tspan
           style="font-size:16.84787369px;font-variant:normal;font-weight:normal;writing-mode:lr-tb;fill:#000000;fill-opacity:1;fill-rule:nonzero;stroke:none;font-family:DejaVu Sans;-inkscape-font-specification:DejaVuSansBold"
           x="16.000004 27.978844"
           y="112"
           sodipodi:role="line"
           id="tspan3080">n4</tspan></text>
<text
         transform="matrix(1,0,0,-1,240,656.51028)"
         id="text3082"><tspan
           style="font-size:15.16308689px;font-variant:normal;font-weight:normal;writing-mode:lr-tb;fill:#000000;fill-opacity:1;fill-rule:nonzero;stroke:none;font-family:DejaVu Sans;-inkscape-font-specification:DejaVuSansOblique"
           x="0 5.9136038 14.874989 19.69685 24.503548 32.464169"
           y="0"
           sodipodi:role="line"
           id="tspan3084">(x, z)</tspan><tspan
           style="font-size:15.16308689px;font-variant:normal;font-weight:normal;writing-mode:lr-tb;fill:#000000;fill-opacity:1;fill-rule:nonzero;stroke:none;font-family:DejaVu Sans;-inkscape-font-specification:DejaVuSansOblique"
           x="258.61011 264.52371 273.48508 278.30695 290.99844 295.80515 305.46405 310.27075 315.09259 323.03806"
           y="56.423923"
           sodipodi:role="line"
           id="tspan3086">(x + 1, z)</tspan><tspan
           style="font-size:15.16308689px;font-variant:normal;font-weight:normal;writing-mode:lr-tb;fill:#000000;fill-opacity:1;fill-rule:nonzero;stroke:none;font-family:DejaVu Sans;-inkscape-font-specification:DejaVuSansOblique"
           x="-221.55423 -215.64062 -206.67924 -201.85738 -196.39867 -191.57681 -181.93309 -177.11122 -172.30452 -164.3439"
           y="47.999996"
           sodipodi:role="line"
           id="tspan3088">(x - 1, z)</tspan><tspan
           style="font-size:15.16308689px;font-variant:normal;font-weight:normal;writing-mode:lr-tb;fill:#000000;fill-opacity:1;fill-rule:nonzero;stroke:none;font-family:DejaVu Sans;-inkscape-font-specification:DejaVuSansOblique"
           x="56.000011 61.913612 70.875 75.696861 80.503555 88.46418 93.270874 105.96238 110.78424 120.42796"
           y="-104"
           sodipodi:role="line"
           id="tspan3090">(x, z + 1)</tspan><tspan
           style="font-size:15.16308689px;font-variant:normal;font-weight:normal;writing-mode:lr-tb;fill:#000000;fill-opacity:1;fill-rule:nonzero;stroke:none;font-family:DejaVu Sans;-inkscape-font-specification:DejaVuSansOblique"
           x="-15.999983 -10.086379 -1.1249949 3.6968668 8.5035658 16.464186 21.270885 26.744759 31.551458 41.210342"
           y="215.99998"
           sodipodi:role="line"
           id="tspan3092">(x, z - 1)</tspan></text>
<g
         id="g3094"
         transform="matrix(1,0,0,-1,0,842.40002)"><path
           d="m 264,153.891 -128,0"
           style="fill:none;stroke:#000000;stroke-width:0.75815398;stroke-linecap:butt;stroke-linejoin:miter;stroke-miterlimit:4;stroke-opacity:1;stroke-dasharray:none"
           id="path3096" /></g><g
         id="g3098"
         transform="matrix(1,0,0,-1,0,842.40002)"><path
           d="m 488,233.891 -200,-104"
           style="fill:none;stroke:#000000;stroke-width:0.75815398;stroke-linecap:butt;stroke-linejoin:miter;stroke-miterlimit:4;stroke-opacity:1;stroke-dasharray:none"
           id="path3100" /></g><g
         id="g3102"
         transform="matrix(1,0,0,-1,0,842.40002)"><path
           d="m 544,393.891 -280,-240"
           style="fill:none;stroke:#000000;stroke-width:0.75815398;stroke-linecap:butt;stroke-linejoin:miter;stroke-miterlimit:4;stroke-opacity:1;stroke-dasharray:none"
           id="path3104" /></g><g
         id="g3106"
         transform="matrix(1,0,0,-1,0,842.40002)"><path
           d="m 256,377.891 -170.164,-144"
           style="fill:none;stroke:#000000;stroke-width:0.75815398;stroke-linecap:butt;stroke-linejoin:miter;stroke-miterlimit:4;stroke-opacity:1;stroke-dasharray:none"
           id="path3108" /></g></g></g></svg>